<mxfile host="app.diagrams.net" modified="2024-01-07T12:12:36.201Z" agent="Mozilla/5.0 (Windows NT 10.0; Win64; x64) AppleWebKit/537.36 (KHTML, like Gecko) Chrome/120.0.0.0 Safari/537.36" etag="dTNTOLWQkxmW0VF3jiMn" version="22.1.17" type="github" pages="5">
  <diagram name="第 1 页" id="12juSuyb3FOE0CGyUG8S">
    <mxGraphModel dx="1434" dy="746" grid="1" gridSize="10" guides="1" tooltips="1" connect="1" arrows="1" fold="1" page="1" pageScale="1" pageWidth="827" pageHeight="1169" math="0" shadow="0">
      <root>
        <mxCell id="0" />
        <mxCell id="1" parent="0" />
        <mxCell id="bNXJC66CrkGVC8ZaAKvV-21" value="" style="edgeStyle=orthogonalEdgeStyle;rounded=0;orthogonalLoop=1;jettySize=auto;html=1;" parent="1" source="bNXJC66CrkGVC8ZaAKvV-15" target="bNXJC66CrkGVC8ZaAKvV-28" edge="1">
          <mxGeometry relative="1" as="geometry" />
        </mxCell>
        <mxCell id="bNXJC66CrkGVC8ZaAKvV-15" value="" style="rounded=1;whiteSpace=wrap;html=1;arcSize=50;" parent="1" vertex="1">
          <mxGeometry x="414" width="120" height="60" as="geometry" />
        </mxCell>
        <mxCell id="bNXJC66CrkGVC8ZaAKvV-23" value="" style="edgeStyle=orthogonalEdgeStyle;rounded=0;orthogonalLoop=1;jettySize=auto;html=1;" parent="1" source="bNXJC66CrkGVC8ZaAKvV-16" target="bNXJC66CrkGVC8ZaAKvV-20" edge="1">
          <mxGeometry relative="1" as="geometry" />
        </mxCell>
        <mxCell id="bNXJC66CrkGVC8ZaAKvV-16" value="" style="whiteSpace=wrap;html=1;" parent="1" vertex="1">
          <mxGeometry x="414" y="236" width="120" height="60" as="geometry" />
        </mxCell>
        <mxCell id="bNXJC66CrkGVC8ZaAKvV-25" value="" style="edgeStyle=orthogonalEdgeStyle;rounded=0;orthogonalLoop=1;jettySize=auto;html=1;" parent="1" source="bNXJC66CrkGVC8ZaAKvV-17" target="bNXJC66CrkGVC8ZaAKvV-18" edge="1">
          <mxGeometry relative="1" as="geometry" />
        </mxCell>
        <mxCell id="bNXJC66CrkGVC8ZaAKvV-17" value="" style="whiteSpace=wrap;html=1;" parent="1" vertex="1">
          <mxGeometry x="414" y="422" width="120" height="60" as="geometry" />
        </mxCell>
        <mxCell id="bNXJC66CrkGVC8ZaAKvV-26" value="" style="edgeStyle=orthogonalEdgeStyle;rounded=0;orthogonalLoop=1;jettySize=auto;html=1;" parent="1" source="bNXJC66CrkGVC8ZaAKvV-18" target="bNXJC66CrkGVC8ZaAKvV-19" edge="1">
          <mxGeometry relative="1" as="geometry" />
        </mxCell>
        <mxCell id="bNXJC66CrkGVC8ZaAKvV-18" value="" style="whiteSpace=wrap;html=1;" parent="1" vertex="1">
          <mxGeometry x="414" y="515" width="120" height="60" as="geometry" />
        </mxCell>
        <mxCell id="bNXJC66CrkGVC8ZaAKvV-19" value="" style="whiteSpace=wrap;html=1;" parent="1" vertex="1">
          <mxGeometry x="414" y="608" width="120" height="60" as="geometry" />
        </mxCell>
        <mxCell id="bNXJC66CrkGVC8ZaAKvV-24" value="" style="edgeStyle=orthogonalEdgeStyle;rounded=0;orthogonalLoop=1;jettySize=auto;html=1;" parent="1" source="bNXJC66CrkGVC8ZaAKvV-20" target="bNXJC66CrkGVC8ZaAKvV-17" edge="1">
          <mxGeometry relative="1" as="geometry" />
        </mxCell>
        <mxCell id="bNXJC66CrkGVC8ZaAKvV-20" value="" style="whiteSpace=wrap;html=1;" parent="1" vertex="1">
          <mxGeometry x="414" y="329" width="120" height="60" as="geometry" />
        </mxCell>
        <mxCell id="bNXJC66CrkGVC8ZaAKvV-31" value="" style="edgeStyle=orthogonalEdgeStyle;rounded=0;orthogonalLoop=1;jettySize=auto;html=1;" parent="1" source="bNXJC66CrkGVC8ZaAKvV-28" target="bNXJC66CrkGVC8ZaAKvV-16" edge="1">
          <mxGeometry relative="1" as="geometry" />
        </mxCell>
        <mxCell id="bNXJC66CrkGVC8ZaAKvV-34" value="" style="edgeStyle=orthogonalEdgeStyle;rounded=0;orthogonalLoop=1;jettySize=auto;html=1;" parent="1" source="bNXJC66CrkGVC8ZaAKvV-28" target="bNXJC66CrkGVC8ZaAKvV-33" edge="1">
          <mxGeometry relative="1" as="geometry" />
        </mxCell>
        <mxCell id="bNXJC66CrkGVC8ZaAKvV-36" value="" style="edgeStyle=orthogonalEdgeStyle;rounded=0;orthogonalLoop=1;jettySize=auto;html=1;" parent="1" source="bNXJC66CrkGVC8ZaAKvV-28" target="bNXJC66CrkGVC8ZaAKvV-35" edge="1">
          <mxGeometry relative="1" as="geometry" />
        </mxCell>
        <mxCell id="bNXJC66CrkGVC8ZaAKvV-28" value="" style="rhombus;whiteSpace=wrap;html=1;" parent="1" vertex="1">
          <mxGeometry x="328" y="98" width="290" height="92" as="geometry" />
        </mxCell>
        <mxCell id="bNXJC66CrkGVC8ZaAKvV-33" value="" style="whiteSpace=wrap;html=1;" parent="1" vertex="1">
          <mxGeometry x="150" y="250" width="120" height="60" as="geometry" />
        </mxCell>
        <mxCell id="bNXJC66CrkGVC8ZaAKvV-35" value="" style="whiteSpace=wrap;html=1;" parent="1" vertex="1">
          <mxGeometry x="830" y="190" width="120" height="60" as="geometry" />
        </mxCell>
      </root>
    </mxGraphModel>
  </diagram>
  <diagram id="83DjMo4Kn0jnBQlsN2W7" name="第 2 页">
    <mxGraphModel dx="1434" dy="746" grid="1" gridSize="10" guides="1" tooltips="1" connect="1" arrows="1" fold="1" page="1" pageScale="1" pageWidth="827" pageHeight="1169" math="0" shadow="0">
      <root>
        <mxCell id="0" />
        <mxCell id="1" parent="0" />
        <mxCell id="D54blmUWU8GxSMpsOVBq-1" value="报销申请人" style="swimlane;whiteSpace=wrap;html=1;fillColor=#dae8fc;strokeColor=#6c8ebf;sketch=1;curveFitting=1;jiggle=2;" parent="1" vertex="1">
          <mxGeometry x="10" y="20" width="260" height="650" as="geometry">
            <mxRectangle x="10" y="20" width="100" height="30" as="alternateBounds" />
          </mxGeometry>
        </mxCell>
        <mxCell id="D54blmUWU8GxSMpsOVBq-8" value="" style="edgeStyle=orthogonalEdgeStyle;rounded=0;orthogonalLoop=1;jettySize=auto;html=1;fillColor=#dae8fc;strokeColor=#6c8ebf;sketch=1;curveFitting=1;jiggle=2;" parent="D54blmUWU8GxSMpsOVBq-1" source="D54blmUWU8GxSMpsOVBq-5" target="D54blmUWU8GxSMpsOVBq-7" edge="1">
          <mxGeometry relative="1" as="geometry" />
        </mxCell>
        <mxCell id="D54blmUWU8GxSMpsOVBq-10" value="" style="edgeStyle=orthogonalEdgeStyle;rounded=0;orthogonalLoop=1;jettySize=auto;html=1;fillColor=#dae8fc;strokeColor=#6c8ebf;sketch=1;curveFitting=1;jiggle=2;" parent="D54blmUWU8GxSMpsOVBq-1" source="D54blmUWU8GxSMpsOVBq-5" target="D54blmUWU8GxSMpsOVBq-9" edge="1">
          <mxGeometry relative="1" as="geometry" />
        </mxCell>
        <mxCell id="D54blmUWU8GxSMpsOVBq-5" value="" style="rhombus;whiteSpace=wrap;html=1;fillColor=#dae8fc;strokeColor=#6c8ebf;sketch=1;curveFitting=1;jiggle=2;" parent="D54blmUWU8GxSMpsOVBq-1" vertex="1">
          <mxGeometry x="100" y="130" width="140" height="80" as="geometry" />
        </mxCell>
        <mxCell id="D54blmUWU8GxSMpsOVBq-7" value="" style="whiteSpace=wrap;html=1;fillColor=#dae8fc;strokeColor=#6c8ebf;sketch=1;curveFitting=1;jiggle=2;" parent="D54blmUWU8GxSMpsOVBq-1" vertex="1">
          <mxGeometry x="20" y="220" width="70" height="60" as="geometry" />
        </mxCell>
        <mxCell id="D54blmUWU8GxSMpsOVBq-12" value="" style="edgeStyle=orthogonalEdgeStyle;rounded=0;orthogonalLoop=1;jettySize=auto;html=1;fillColor=#dae8fc;strokeColor=#6c8ebf;sketch=1;curveFitting=1;jiggle=2;" parent="D54blmUWU8GxSMpsOVBq-1" source="D54blmUWU8GxSMpsOVBq-9" target="D54blmUWU8GxSMpsOVBq-11" edge="1">
          <mxGeometry relative="1" as="geometry" />
        </mxCell>
        <mxCell id="D54blmUWU8GxSMpsOVBq-9" value="" style="whiteSpace=wrap;html=1;fillColor=#dae8fc;strokeColor=#6c8ebf;sketch=1;curveFitting=1;jiggle=2;" parent="D54blmUWU8GxSMpsOVBq-1" vertex="1">
          <mxGeometry x="110" y="300" width="120" height="60" as="geometry" />
        </mxCell>
        <mxCell id="D54blmUWU8GxSMpsOVBq-11" value="" style="whiteSpace=wrap;html=1;fillColor=#dae8fc;strokeColor=#6c8ebf;sketch=1;curveFitting=1;jiggle=2;" parent="D54blmUWU8GxSMpsOVBq-1" vertex="1">
          <mxGeometry x="110" y="440" width="120" height="60" as="geometry" />
        </mxCell>
        <mxCell id="D54blmUWU8GxSMpsOVBq-2" value="部门主管" style="swimlane;whiteSpace=wrap;html=1;fillColor=#d5e8d4;strokeColor=#82b366;sketch=1;curveFitting=1;jiggle=2;" parent="1" vertex="1">
          <mxGeometry x="270" y="20" width="200" height="650" as="geometry">
            <mxRectangle x="270" y="20" width="90" height="30" as="alternateBounds" />
          </mxGeometry>
        </mxCell>
        <mxCell id="D54blmUWU8GxSMpsOVBq-15" value="" style="whiteSpace=wrap;html=1;fillColor=#d5e8d4;strokeColor=#82b366;sketch=1;curveFitting=1;jiggle=2;" parent="D54blmUWU8GxSMpsOVBq-2" vertex="1">
          <mxGeometry x="40" y="300" width="120" height="60" as="geometry" />
        </mxCell>
        <mxCell id="D54blmUWU8GxSMpsOVBq-3" value="财务人员" style="swimlane;whiteSpace=wrap;html=1;fillColor=#ffe6cc;strokeColor=#d79b00;sketch=1;curveFitting=1;jiggle=2;" parent="1" vertex="1">
          <mxGeometry x="470" y="20" width="200" height="650" as="geometry">
            <mxRectangle x="470" y="20" width="90" height="30" as="alternateBounds" />
          </mxGeometry>
        </mxCell>
        <mxCell id="D54blmUWU8GxSMpsOVBq-6" value="" style="edgeStyle=orthogonalEdgeStyle;rounded=0;orthogonalLoop=1;jettySize=auto;html=1;fillColor=#dae8fc;strokeColor=#6c8ebf;sketch=1;curveFitting=1;jiggle=2;" parent="1" source="D54blmUWU8GxSMpsOVBq-4" target="D54blmUWU8GxSMpsOVBq-5" edge="1">
          <mxGeometry relative="1" as="geometry" />
        </mxCell>
        <mxCell id="D54blmUWU8GxSMpsOVBq-4" value="" style="whiteSpace=wrap;html=1;fillColor=#dae8fc;strokeColor=#6c8ebf;sketch=1;curveFitting=1;jiggle=2;" parent="1" vertex="1">
          <mxGeometry x="100" y="50" width="120" height="60" as="geometry" />
        </mxCell>
        <mxCell id="D54blmUWU8GxSMpsOVBq-16" value="" style="edgeStyle=orthogonalEdgeStyle;rounded=0;orthogonalLoop=1;jettySize=auto;html=1;sketch=1;curveFitting=1;jiggle=2;" parent="1" source="D54blmUWU8GxSMpsOVBq-9" target="D54blmUWU8GxSMpsOVBq-15" edge="1">
          <mxGeometry relative="1" as="geometry" />
        </mxCell>
        <mxCell id="D54blmUWU8GxSMpsOVBq-26" style="edgeStyle=orthogonalEdgeStyle;rounded=0;orthogonalLoop=1;jettySize=auto;html=1;entryX=0;entryY=0.5;entryDx=0;entryDy=0;" parent="1" source="D54blmUWU8GxSMpsOVBq-21" target="D54blmUWU8GxSMpsOVBq-24" edge="1">
          <mxGeometry relative="1" as="geometry" />
        </mxCell>
        <mxCell id="D54blmUWU8GxSMpsOVBq-21" value="" style="whiteSpace=wrap;html=1;container=1;sketch=1;curveFitting=1;jiggle=2;" parent="1" vertex="1">
          <mxGeometry x="340" y="800" width="370" height="294.9473684210526" as="geometry">
            <mxRectangle x="340" y="800" width="50" height="40" as="alternateBounds" />
          </mxGeometry>
        </mxCell>
        <mxCell id="D54blmUWU8GxSMpsOVBq-32" style="edgeStyle=orthogonalEdgeStyle;rounded=0;orthogonalLoop=1;jettySize=auto;html=1;entryX=0.5;entryY=0;entryDx=0;entryDy=0;" parent="D54blmUWU8GxSMpsOVBq-21" source="D54blmUWU8GxSMpsOVBq-13" target="D54blmUWU8GxSMpsOVBq-17" edge="1">
          <mxGeometry relative="1" as="geometry" />
        </mxCell>
        <mxCell id="D54blmUWU8GxSMpsOVBq-13" value="" style="whiteSpace=wrap;html=1;fillColor=#dae8fc;strokeColor=#6c8ebf;sketch=1;curveFitting=1;jiggle=2;" parent="D54blmUWU8GxSMpsOVBq-21" vertex="1">
          <mxGeometry x="144" y="30.003157894736844" width="60" height="60" as="geometry" />
        </mxCell>
        <mxCell id="D54blmUWU8GxSMpsOVBq-33" style="edgeStyle=orthogonalEdgeStyle;rounded=0;orthogonalLoop=1;jettySize=auto;html=1;exitX=1;exitY=0.5;exitDx=0;exitDy=0;entryX=1;entryY=0.25;entryDx=0;entryDy=0;" parent="D54blmUWU8GxSMpsOVBq-21" source="D54blmUWU8GxSMpsOVBq-17" target="D54blmUWU8GxSMpsOVBq-28" edge="1">
          <mxGeometry relative="1" as="geometry" />
        </mxCell>
        <mxCell id="D54blmUWU8GxSMpsOVBq-17" value="" style="whiteSpace=wrap;html=1;fillColor=#d5e8d4;strokeColor=#82b366;sketch=1;curveFitting=1;jiggle=2;" parent="D54blmUWU8GxSMpsOVBq-21" vertex="1">
          <mxGeometry x="144" y="129.99526315789475" width="60" height="60" as="geometry" />
        </mxCell>
        <mxCell id="D54blmUWU8GxSMpsOVBq-28" value="" style="whiteSpace=wrap;html=1;fillColor=#d5e8d4;strokeColor=#82b366;sketch=1;curveFitting=1;jiggle=2;" parent="D54blmUWU8GxSMpsOVBq-21" vertex="1">
          <mxGeometry x="144" y="207.9973684210526" width="60" height="60" as="geometry" />
        </mxCell>
        <mxCell id="D54blmUWU8GxSMpsOVBq-22" value="" style="whiteSpace=wrap;html=1;sketch=1;curveFitting=1;jiggle=2;" parent="1" vertex="1">
          <mxGeometry x="30" y="1010" width="120" height="60" as="geometry" />
        </mxCell>
        <mxCell id="D54blmUWU8GxSMpsOVBq-25" style="edgeStyle=orthogonalEdgeStyle;rounded=0;orthogonalLoop=1;jettySize=auto;html=1;entryX=0;entryY=0.5;entryDx=0;entryDy=0;" parent="1" source="D54blmUWU8GxSMpsOVBq-23" target="D54blmUWU8GxSMpsOVBq-21" edge="1">
          <mxGeometry relative="1" as="geometry" />
        </mxCell>
        <mxCell id="D54blmUWU8GxSMpsOVBq-23" value="" style="whiteSpace=wrap;html=1;" parent="1" vertex="1">
          <mxGeometry x="40" y="865" width="120" height="60" as="geometry" />
        </mxCell>
        <mxCell id="D54blmUWU8GxSMpsOVBq-24" value="" style="whiteSpace=wrap;html=1;" parent="1" vertex="1">
          <mxGeometry x="790" y="865" width="120" height="60" as="geometry" />
        </mxCell>
      </root>
    </mxGraphModel>
  </diagram>
  <diagram id="4gfO6iTSBbXXSX2Goryc" name="第 3 页">
    <mxGraphModel dx="1434" dy="746" grid="1" gridSize="10" guides="1" tooltips="1" connect="1" arrows="1" fold="1" page="1" pageScale="1" pageWidth="827" pageHeight="1169" math="0" shadow="0">
      <root>
        <mxCell id="0" />
        <mxCell id="1" parent="0" />
        <mxCell id="RkB3va0ACPjkiVYd4vQj-5" style="edgeStyle=entityRelationEdgeStyle;rounded=0;orthogonalLoop=1;jettySize=auto;html=1;exitX=0.5;exitY=1;exitDx=0;exitDy=0;shadow=1;fillColor=#f8cecc;strokeColor=#b85450;dashed=1;startArrow=classicThin;startFill=1;endArrow=oval;endFill=1;" parent="1" source="RkB3va0ACPjkiVYd4vQj-1" target="RkB3va0ACPjkiVYd4vQj-4" edge="1">
          <mxGeometry relative="1" as="geometry" />
        </mxCell>
        <mxCell id="RkB3va0ACPjkiVYd4vQj-6" style="edgeStyle=orthogonalEdgeStyle;rounded=1;orthogonalLoop=1;jettySize=auto;html=1;exitX=1;exitY=0.5;exitDx=0;exitDy=0;entryX=0.5;entryY=0;entryDx=0;entryDy=0;curved=1;shadow=1;" parent="1" source="RkB3va0ACPjkiVYd4vQj-1" target="RkB3va0ACPjkiVYd4vQj-3" edge="1">
          <mxGeometry relative="1" as="geometry" />
        </mxCell>
        <mxCell id="RkB3va0ACPjkiVYd4vQj-1" value="." style="whiteSpace=wrap;html=1;rotation=0;shadow=1;fillColor=#6a00ff;fontColor=#ffffff;strokeColor=#3700CC;gradientColor=none;rounded=0;glass=1;" parent="1" vertex="1">
          <mxGeometry x="140" y="50" width="120" height="60" as="geometry" />
        </mxCell>
        <mxCell id="RkB3va0ACPjkiVYd4vQj-13" value="" style="edgeStyle=orthogonalEdgeStyle;rounded=0;hachureGap=4;orthogonalLoop=1;jettySize=auto;html=1;fontFamily=Architects Daughter;fontSource=https%3A%2F%2Ffonts.googleapis.com%2Fcss%3Ffamily%3DArchitects%2BDaughter;fontSize=16;" parent="1" source="RkB3va0ACPjkiVYd4vQj-2" target="RkB3va0ACPjkiVYd4vQj-9" edge="1">
          <mxGeometry relative="1" as="geometry" />
        </mxCell>
        <mxCell id="RkB3va0ACPjkiVYd4vQj-2" value="B" style="whiteSpace=wrap;html=1;rotation=0;shadow=1;" parent="1" vertex="1">
          <mxGeometry x="390" y="320" width="120" height="60" as="geometry" />
        </mxCell>
        <mxCell id="RkB3va0ACPjkiVYd4vQj-3" value="." style="whiteSpace=wrap;html=1;rotation=0;shadow=1;" parent="1" vertex="1">
          <mxGeometry x="540" y="40" width="120" height="60" as="geometry" />
        </mxCell>
        <mxCell id="RkB3va0ACPjkiVYd4vQj-4" value="" style="whiteSpace=wrap;html=1;rotation=0;shadow=1;" parent="1" vertex="1">
          <mxGeometry x="102" y="412" width="120" height="60" as="geometry" />
        </mxCell>
        <mxCell id="RkB3va0ACPjkiVYd4vQj-16" value="" style="edgeStyle=orthogonalEdgeStyle;rounded=0;hachureGap=4;orthogonalLoop=1;jettySize=auto;html=1;fontFamily=Architects Daughter;fontSource=https%3A%2F%2Ffonts.googleapis.com%2Fcss%3Ffamily%3DArchitects%2BDaughter;fontSize=16;" parent="1" source="RkB3va0ACPjkiVYd4vQj-8" target="RkB3va0ACPjkiVYd4vQj-2" edge="1">
          <mxGeometry relative="1" as="geometry" />
        </mxCell>
        <mxCell id="RkB3va0ACPjkiVYd4vQj-8" value="A" style="whiteSpace=wrap;html=1;rotation=0;shadow=1;" parent="1" vertex="1">
          <mxGeometry x="390" y="232" width="120" height="60" as="geometry" />
        </mxCell>
        <mxCell id="RkB3va0ACPjkiVYd4vQj-14" value="" style="edgeStyle=orthogonalEdgeStyle;rounded=0;hachureGap=4;orthogonalLoop=1;jettySize=auto;html=1;fontFamily=Architects Daughter;fontSource=https%3A%2F%2Ffonts.googleapis.com%2Fcss%3Ffamily%3DArchitects%2BDaughter;fontSize=16;" parent="1" source="RkB3va0ACPjkiVYd4vQj-9" target="RkB3va0ACPjkiVYd4vQj-11" edge="1">
          <mxGeometry relative="1" as="geometry" />
        </mxCell>
        <mxCell id="RkB3va0ACPjkiVYd4vQj-9" value="C" style="whiteSpace=wrap;html=1;rotation=0;shadow=1;" parent="1" vertex="1">
          <mxGeometry x="390" y="410" width="120" height="60" as="geometry" />
        </mxCell>
        <mxCell id="RkB3va0ACPjkiVYd4vQj-21" value="" style="edgeStyle=orthogonalEdgeStyle;rounded=0;hachureGap=4;orthogonalLoop=1;jettySize=auto;html=1;fontFamily=Architects Daughter;fontSource=https%3A%2F%2Ffonts.googleapis.com%2Fcss%3Ffamily%3DArchitects%2BDaughter;fontSize=16;" parent="1" source="RkB3va0ACPjkiVYd4vQj-10" target="RkB3va0ACPjkiVYd4vQj-20" edge="1">
          <mxGeometry relative="1" as="geometry" />
        </mxCell>
        <mxCell id="RkB3va0ACPjkiVYd4vQj-10" value="" style="whiteSpace=wrap;html=1;rotation=0;shadow=1;" parent="1" vertex="1">
          <mxGeometry x="390" y="590" width="120" height="60" as="geometry" />
        </mxCell>
        <mxCell id="RkB3va0ACPjkiVYd4vQj-15" value="" style="edgeStyle=orthogonalEdgeStyle;rounded=0;hachureGap=4;orthogonalLoop=1;jettySize=auto;html=1;fontFamily=Architects Daughter;fontSource=https%3A%2F%2Ffonts.googleapis.com%2Fcss%3Ffamily%3DArchitects%2BDaughter;fontSize=16;" parent="1" source="RkB3va0ACPjkiVYd4vQj-11" target="RkB3va0ACPjkiVYd4vQj-10" edge="1">
          <mxGeometry relative="1" as="geometry" />
        </mxCell>
        <mxCell id="RkB3va0ACPjkiVYd4vQj-11" value="" style="whiteSpace=wrap;html=1;rotation=0;shadow=1;" parent="1" vertex="1">
          <mxGeometry x="390" y="499" width="120" height="60" as="geometry" />
        </mxCell>
        <mxCell id="RkB3va0ACPjkiVYd4vQj-19" value="" style="edgeStyle=orthogonalEdgeStyle;rounded=0;hachureGap=4;orthogonalLoop=1;jettySize=auto;html=1;fontFamily=Architects Daughter;fontSource=https%3A%2F%2Ffonts.googleapis.com%2Fcss%3Ffamily%3DArchitects%2BDaughter;fontSize=16;" parent="1" source="RkB3va0ACPjkiVYd4vQj-18" target="RkB3va0ACPjkiVYd4vQj-8" edge="1">
          <mxGeometry relative="1" as="geometry" />
        </mxCell>
        <mxCell id="RkB3va0ACPjkiVYd4vQj-18" value="begin" style="ellipse;whiteSpace=wrap;html=1;hachureGap=4;fontFamily=Architects Daughter;fontSource=https%3A%2F%2Ffonts.googleapis.com%2Fcss%3Ffamily%3DArchitects%2BDaughter;fontSize=20;fillColor=#0050ef;fontColor=#ffffff;strokeColor=#001DBC;" parent="1" vertex="1">
          <mxGeometry x="410" y="110" width="80" height="80" as="geometry" />
        </mxCell>
        <mxCell id="RkB3va0ACPjkiVYd4vQj-20" value="end" style="ellipse;whiteSpace=wrap;html=1;hachureGap=4;fontFamily=Architects Daughter;fontSource=https%3A%2F%2Ffonts.googleapis.com%2Fcss%3Ffamily%3DArchitects%2BDaughter;fontSize=20;fillColor=#008a00;fontColor=#ffffff;strokeColor=#005700;" parent="1" vertex="1">
          <mxGeometry x="580" y="580" width="80" height="80" as="geometry" />
        </mxCell>
      </root>
    </mxGraphModel>
  </diagram>
  <diagram id="LN_8lAejDlJj3PIK9VHi" name="第 4 页">
    <mxGraphModel dx="1434" dy="746" grid="1" gridSize="10" guides="1" tooltips="1" connect="1" arrows="1" fold="1" page="1" pageScale="1" pageWidth="827" pageHeight="1169" math="0" shadow="0">
      <root>
        <mxCell id="0" />
        <mxCell id="1" parent="0" />
        <mxCell id="1K8Gm_Xwi9fIt6KrSXcE-3" value="" style="edgeStyle=orthogonalEdgeStyle;rounded=0;orthogonalLoop=1;jettySize=auto;html=1;" parent="1" target="1K8Gm_Xwi9fIt6KrSXcE-2" edge="1">
          <mxGeometry relative="1" as="geometry">
            <mxPoint x="250" y="190" as="sourcePoint" />
          </mxGeometry>
        </mxCell>
        <mxCell id="1K8Gm_Xwi9fIt6KrSXcE-5" value="" style="edgeStyle=orthogonalEdgeStyle;rounded=0;orthogonalLoop=1;jettySize=auto;html=1;" parent="1" source="1K8Gm_Xwi9fIt6KrSXcE-2" target="1K8Gm_Xwi9fIt6KrSXcE-4" edge="1">
          <mxGeometry relative="1" as="geometry" />
        </mxCell>
        <mxCell id="1K8Gm_Xwi9fIt6KrSXcE-2" value="生成公私秘钥对" style="whiteSpace=wrap;html=1;verticalAlign=top;" parent="1" vertex="1">
          <mxGeometry x="190" y="280" width="120" height="60" as="geometry" />
        </mxCell>
        <mxCell id="1K8Gm_Xwi9fIt6KrSXcE-7" value="" style="edgeStyle=orthogonalEdgeStyle;rounded=0;orthogonalLoop=1;jettySize=auto;html=1;" parent="1" source="1K8Gm_Xwi9fIt6KrSXcE-4" target="1K8Gm_Xwi9fIt6KrSXcE-6" edge="1">
          <mxGeometry relative="1" as="geometry" />
        </mxCell>
        <mxCell id="1K8Gm_Xwi9fIt6KrSXcE-4" value="使用约定的算法对消息生成摘要（Hash）" style="whiteSpace=wrap;html=1;verticalAlign=top;" parent="1" vertex="1">
          <mxGeometry x="190" y="420" width="120" height="60" as="geometry" />
        </mxCell>
        <mxCell id="1K8Gm_Xwi9fIt6KrSXcE-6" value="使用私钥对摘要进行签名" style="whiteSpace=wrap;html=1;verticalAlign=top;" parent="1" vertex="1">
          <mxGeometry x="190" y="560" width="120" height="60" as="geometry" />
        </mxCell>
        <mxCell id="1K8Gm_Xwi9fIt6KrSXcE-10" value="" style="edgeStyle=orthogonalEdgeStyle;rounded=0;orthogonalLoop=1;jettySize=auto;html=1;" parent="1" source="1K8Gm_Xwi9fIt6KrSXcE-8" target="1K8Gm_Xwi9fIt6KrSXcE-9" edge="1">
          <mxGeometry relative="1" as="geometry" />
        </mxCell>
        <mxCell id="1K8Gm_Xwi9fIt6KrSXcE-8" value="验证签名" style="ellipse;whiteSpace=wrap;html=1;" parent="1" vertex="1">
          <mxGeometry x="420" y="109" width="80" height="80" as="geometry" />
        </mxCell>
        <mxCell id="1K8Gm_Xwi9fIt6KrSXcE-12" value="" style="edgeStyle=orthogonalEdgeStyle;rounded=0;orthogonalLoop=1;jettySize=auto;html=1;" parent="1" source="1K8Gm_Xwi9fIt6KrSXcE-9" target="1K8Gm_Xwi9fIt6KrSXcE-11" edge="1">
          <mxGeometry relative="1" as="geometry" />
        </mxCell>
        <mxCell id="1K8Gm_Xwi9fIt6KrSXcE-9" value="使用公钥验证签名得到摘要" style="whiteSpace=wrap;html=1;" parent="1" vertex="1">
          <mxGeometry x="400" y="279" width="120" height="60" as="geometry" />
        </mxCell>
        <mxCell id="1K8Gm_Xwi9fIt6KrSXcE-14" value="" style="edgeStyle=orthogonalEdgeStyle;rounded=0;orthogonalLoop=1;jettySize=auto;html=1;" parent="1" source="1K8Gm_Xwi9fIt6KrSXcE-11" target="1K8Gm_Xwi9fIt6KrSXcE-13" edge="1">
          <mxGeometry relative="1" as="geometry" />
        </mxCell>
        <mxCell id="1K8Gm_Xwi9fIt6KrSXcE-11" value="相同的算法对消息生成摘要" style="whiteSpace=wrap;html=1;" parent="1" vertex="1">
          <mxGeometry x="400" y="419" width="120" height="60" as="geometry" />
        </mxCell>
        <mxCell id="1K8Gm_Xwi9fIt6KrSXcE-13" value="比较摘要是否相同" style="whiteSpace=wrap;html=1;" parent="1" vertex="1">
          <mxGeometry x="400" y="559" width="120" height="60" as="geometry" />
        </mxCell>
        <mxCell id="1K8Gm_Xwi9fIt6KrSXcE-15" value="签名过程" style="ellipse;whiteSpace=wrap;html=1;" parent="1" vertex="1">
          <mxGeometry x="210" y="120" width="80" height="80" as="geometry" />
        </mxCell>
      </root>
    </mxGraphModel>
  </diagram>
  <diagram id="iqvirN57Rx38GoRe5jMF" name="第 5 页">
    <mxGraphModel dx="1434" dy="746" grid="1" gridSize="10" guides="1" tooltips="1" connect="1" arrows="1" fold="1" page="1" pageScale="1" pageWidth="827" pageHeight="1169" math="0" shadow="0">
      <root>
        <mxCell id="0" />
        <mxCell id="1" parent="0" />
        <mxCell id="IVY_frbjcUsWj23P3Y9o-1" value="this is a test" style="rounded=0;whiteSpace=wrap;html=1;" vertex="1" parent="1">
          <mxGeometry x="330" y="220" width="120" height="60" as="geometry" />
        </mxCell>
      </root>
    </mxGraphModel>
  </diagram>
</mxfile>
